<svg width="264" height="86" viewBox="0 0 264 86" fill="none" xmlns="http://www.w3.org/2000/svg">
    <rect width="249.075" height="71.3962" fill="#FCD902" />
    <path
        d="M263.274 85.5943L14.7718 85.5943L0.405702 71.2282L0.405708 0.405662L248.907 0.405684L263.274 14.7718L263.274 85.5943Z"
        stroke="black" stroke-width="0.81132" />
    <path
        d="M48.7335 52.5391C46.4724 52.5391 44.4284 52.1497 42.6016 51.3711C40.7748 50.5775 39.21 49.4395 37.9073 47.957C36.6195 46.4746 35.6238 44.6927 34.92 42.6113C34.2312 40.5299 33.8868 38.2015 33.8868 35.626V35.6035C33.8868 32.2194 34.4932 29.292 35.7061 26.8213C36.934 24.3506 38.656 22.4414 40.8721 21.0938C43.1033 19.7311 45.7237 19.0498 48.7335 19.0498C51.2191 19.0498 53.3679 19.4915 55.1797 20.375C57.0066 21.2435 58.504 22.4339 59.6719 23.9463C60.8399 25.4437 61.671 27.1507 62.1651 29.0674L62.2774 29.4941H58.0323L57.9424 29.2471C57.1937 27.1956 56.0408 25.6084 54.4835 24.4854C52.9262 23.3473 51.0095 22.7783 48.7335 22.7783C46.5173 22.7783 44.6081 23.2949 43.0059 24.3281C41.4037 25.3464 40.1684 26.8138 39.2999 28.7305C38.4464 30.6471 38.0196 32.9382 38.0196 35.6035V35.626C38.0196 37.6624 38.2667 39.4967 38.7608 41.1289C39.2549 42.7461 39.9662 44.1312 40.8946 45.2842C41.838 46.4222 42.9685 47.2982 44.2862 47.9121C45.6039 48.5111 47.0863 48.8105 48.7335 48.8105C50.6501 48.8105 52.3347 48.4287 53.7872 47.665C55.2546 46.8864 56.3926 45.8083 57.2012 44.4307C58.0248 43.0531 58.4366 41.4583 58.4366 39.6465V39.0625H49.295V35.5137H62.4796V38.5908C62.4796 40.777 62.1651 42.7311 61.5362 44.4531C60.9223 46.1751 60.0238 47.6426 58.8409 48.8555C57.6579 50.0534 56.213 50.9668 54.5059 51.5957C52.8139 52.2246 50.8897 52.5391 48.7335 52.5391ZM67.668 52V19.5889H87.7481V23.2275H71.711V33.627H86.9171V37.2207H71.711V48.3613H87.7481V52H67.668ZM93.0938 52V19.5889H97.0245L118.295 50.1133L113.174 45.1719H114.971V19.5889H118.969V52H115.038L93.7676 21.4756L98.8887 26.417H97.0919V52H93.0938ZM127.279 52V48.4287H136.893C139.318 48.4287 141.16 47.9495 142.418 46.9912C143.691 46.0179 144.327 44.6029 144.327 42.7461V42.7012C144.327 41.4434 144.035 40.3952 143.451 39.5566C142.867 38.7181 141.991 38.0892 140.823 37.6699C139.67 37.2507 138.233 37.041 136.511 37.041H127.279V33.5596H135.365C137.761 33.5596 139.588 33.0954 140.846 32.167C142.119 31.2386 142.755 29.8984 142.755 28.1465V28.1016C142.755 26.4993 142.223 25.279 141.16 24.4404C140.097 23.5869 138.585 23.1602 136.623 23.1602H127.279V19.5889H137.544C139.401 19.5889 141.025 19.9258 142.418 20.5996C143.811 21.2734 144.896 22.2168 145.675 23.4297C146.454 24.6426 146.843 26.0576 146.843 27.6748V27.7197C146.843 28.8428 146.588 29.9134 146.079 30.9316C145.57 31.9499 144.874 32.8109 143.99 33.5146C143.107 34.2035 142.104 34.6302 140.981 34.7949V34.8848C142.538 35.0645 143.878 35.5137 145.001 36.2324C146.124 36.9512 146.985 37.8796 147.584 39.0176C148.183 40.1406 148.482 41.4209 148.482 42.8584V42.9033C148.482 44.805 148.041 46.4372 147.157 47.7998C146.289 49.1475 145.038 50.1882 143.406 50.9219C141.774 51.6406 139.805 52 137.499 52H127.279ZM125.258 52V19.5889H129.301V52H125.258ZM166.766 52.5391C163.696 52.5391 161.038 51.8577 158.792 50.4951C156.561 49.1325 154.839 47.2008 153.626 44.7002C152.413 42.1995 151.807 39.2347 151.807 35.8057V35.7607C151.807 32.3317 152.413 29.3743 153.626 26.8887C154.854 24.388 156.583 22.4564 158.815 21.0938C161.061 19.7311 163.711 19.0498 166.766 19.0498C169.82 19.0498 172.463 19.7311 174.694 21.0938C176.926 22.4564 178.648 24.388 179.86 26.8887C181.073 29.3743 181.68 32.3317 181.68 35.7607V35.8057C181.68 39.2347 181.073 42.1995 179.86 44.7002C178.648 47.2008 176.926 49.1325 174.694 50.4951C172.478 51.8577 169.835 52.5391 166.766 52.5391ZM166.766 48.8105C168.997 48.8105 170.913 48.279 172.516 47.2158C174.133 46.1377 175.376 44.6253 176.244 42.6787C177.113 40.7321 177.547 38.4411 177.547 35.8057V35.7607C177.547 33.1104 177.105 30.8118 176.222 28.8652C175.353 26.9186 174.11 25.4212 172.493 24.373C170.876 23.3099 168.967 22.7783 166.766 22.7783C164.565 22.7783 162.648 23.3099 161.016 24.373C159.398 25.4212 158.148 26.9186 157.265 28.8652C156.381 30.7969 155.94 33.0954 155.94 35.7607V35.8057C155.94 38.4561 156.381 40.7546 157.265 42.7012C158.148 44.6478 159.398 46.1527 161.016 47.2158C162.633 48.279 164.55 48.8105 166.766 48.8105ZM192.888 52V23.2275H182.668V19.5889H207.15V23.2275H196.931V52H192.888Z"
        fill="#2B2B2B" />
</svg>
    