<svg width="264" height="86" viewBox="0 0 264 86" fill="none" xmlns="http://www.w3.org/2000/svg">
    <rect width="249.075" height="71.3962" fill="#FCD902" />
    <path
        d="M263.274 85.5943L14.7718 85.5943L0.405702 71.2282L0.405708 0.405662L248.907 0.405684L263.274 14.7718L263.274 85.5943Z"
        stroke="black" stroke-width="0.81132" />
    <path
        d="M75.0321 37.118H87.3141V50.274C86.4861 51.0407 85.5661 51.7153 84.5541 52.298C83.5727 52.85 82.5301 53.3253 81.4261 53.724C80.3527 54.092 79.2334 54.368 78.0681 54.552C76.9334 54.736 75.8141 54.828 74.7101 54.828C72.2874 54.828 70.1254 54.4447 68.2241 53.678C66.3534 52.8807 64.7587 51.746 63.4401 50.274C62.1521 48.802 61.1707 47.008 60.4961 44.892C59.8214 42.7453 59.4841 40.3227 59.4841 37.624C59.4841 34.864 59.8521 32.4107 60.5881 30.264C61.3241 28.1173 62.3361 26.308 63.6241 24.836C64.9427 23.364 66.5067 22.2447 68.3161 21.478C70.1254 20.7113 72.1034 20.328 74.2501 20.328C76.0901 20.328 77.7154 20.558 79.1261 21.018C80.5367 21.4473 81.7327 22.076 82.7141 22.904C83.7261 23.732 84.5541 24.7287 85.1981 25.894C85.8421 27.0287 86.3327 28.3013 86.6701 29.712L82.5761 30.402C82.3307 29.4513 81.9934 28.5773 81.5641 27.78C81.1654 26.9827 80.6441 26.308 80.0001 25.756C79.3561 25.1733 78.5587 24.7287 77.6081 24.422C76.6881 24.1153 75.5687 23.962 74.2501 23.962C72.5327 23.962 71.0301 24.2993 69.7421 24.974C68.4541 25.618 67.3807 26.538 66.5221 27.734C65.6634 28.93 65.0041 30.3713 64.5441 32.058C64.1147 33.714 63.9001 35.554 63.9001 37.578C63.9001 39.602 64.1147 41.4573 64.5441 43.144C64.9734 44.8 65.6327 46.226 66.5221 47.422C67.4421 48.618 68.5767 49.538 69.9261 50.182C71.2754 50.826 72.8701 51.148 74.7101 51.148C76.3661 51.148 77.9147 50.9487 79.3561 50.55C80.8281 50.1513 82.1467 49.5227 83.3121 48.664V40.798H75.0321V37.118ZM103.804 21.156H114.706C117.037 21.156 118.953 21.386 120.456 21.846C121.959 22.2753 123.139 22.8733 123.998 23.64C124.887 24.376 125.501 25.2653 125.838 26.308C126.175 27.32 126.344 28.4087 126.344 29.574C126.344 31.0767 125.991 32.426 125.286 33.622C124.611 34.818 123.415 35.8147 121.698 36.612C122.802 37.0413 123.707 37.5473 124.412 38.13C125.148 38.682 125.731 39.3107 126.16 40.016C126.62 40.6907 126.927 41.4113 127.08 42.178C127.264 42.914 127.356 43.6807 127.356 44.478C127.356 45.8273 127.141 47.0847 126.712 48.25C126.313 49.3847 125.654 50.3813 124.734 51.24C123.814 52.0987 122.603 52.7733 121.1 53.264C119.597 53.7547 117.742 54 115.534 54H103.804V21.156ZM115.258 35.048C117.742 35.048 119.521 34.6033 120.594 33.714C121.667 32.794 122.204 31.46 122.204 29.712C122.204 27.9333 121.621 26.6453 120.456 25.848C119.321 25.0507 117.359 24.652 114.568 24.652H107.944V35.048H115.258ZM115.396 50.504C116.899 50.504 118.141 50.366 119.122 50.09C120.134 49.814 120.931 49.4307 121.514 48.94C122.127 48.4187 122.541 47.8053 122.756 47.1C123.001 46.364 123.124 45.536 123.124 44.616C123.124 42.684 122.557 41.212 121.422 40.2C120.287 39.1573 118.386 38.636 115.718 38.636H107.944V50.504H115.396ZM146.852 54.828C144.614 54.828 142.559 54.46 140.688 53.724C138.848 52.9573 137.254 51.8533 135.904 50.412C134.586 48.94 133.558 47.1307 132.822 44.984C132.086 42.8373 131.718 40.384 131.718 37.624C131.718 34.864 132.086 32.4107 132.822 30.264C133.589 28.1173 134.632 26.308 135.95 24.836C137.3 23.364 138.894 22.2447 140.734 21.478C142.605 20.7113 144.644 20.328 146.852 20.328C149.091 20.328 151.13 20.7113 152.97 21.478C154.841 22.214 156.436 23.318 157.754 24.79C159.073 26.2313 160.1 28.0253 160.836 30.172C161.572 32.288 161.94 34.726 161.94 37.486C161.94 40.246 161.572 42.7147 160.836 44.892C160.131 47.0387 159.119 48.848 157.8 50.32C156.482 51.792 154.887 52.9113 153.016 53.678C151.176 54.4447 149.122 54.828 146.852 54.828ZM146.852 51.148C148.6 51.148 150.134 50.826 151.452 50.182C152.802 49.538 153.921 48.6333 154.81 47.468C155.7 46.272 156.374 44.846 156.834 43.19C157.294 41.5033 157.524 39.6327 157.524 37.578C157.524 35.554 157.294 33.714 156.834 32.058C156.374 30.3713 155.684 28.93 154.764 27.734C153.875 26.538 152.771 25.618 151.452 24.974C150.134 24.33 148.6 24.008 146.852 24.008C145.074 24.008 143.51 24.33 142.16 24.974C140.842 25.618 139.722 26.538 138.802 27.734C137.913 28.93 137.238 30.3713 136.778 32.058C136.349 33.714 136.134 35.554 136.134 37.578C136.134 39.6327 136.349 41.5033 136.778 43.19C137.238 44.846 137.913 46.272 138.802 47.468C139.692 48.6333 140.796 49.538 142.114 50.182C143.464 50.826 145.043 51.148 146.852 51.148ZM176.092 24.928H165.236V21.156H191.226V24.928H180.37V54H176.092V24.928Z"
        fill="#2B2B2B" />
</svg>
    