<svg width="645" height="755" viewBox="0 0 645 755" fill="none" xmlns="http://www.w3.org/2000/svg">
    <path
        d="M80.2427 350.758C57.9777 350.758 39.9354 344.04 26.1157 330.604C12.68 317.168 5.96209 292.984 5.96209 258.051V78.3957C5.96209 49.9886 15.1752 30.0269 33.6014 18.5105C52.0276 6.61028 76.5958 0.660156 107.306 0.660156C138.016 0.660156 162.969 6.61028 182.163 18.5105C201.74 30.0269 211.529 49.9886 211.529 78.3957V130.219H122.853V72.6375C122.853 66.1115 121.702 61.6969 119.398 59.3937C117.095 56.7065 114.024 55.3629 110.185 55.3629C106.346 55.3629 103.275 56.7065 100.972 59.3937C98.6689 61.6969 97.5172 66.1115 97.5172 72.6375V281.66C97.5172 288.186 98.6689 292.792 100.972 295.479C103.275 297.783 106.346 298.934 110.185 298.934C114.024 298.934 117.095 297.783 119.398 295.479C121.702 292.792 122.853 288.186 122.853 281.66V217.168H108.458V165.92H211.529V345H142.431L134.37 309.299C131.299 318.512 125.348 327.725 116.519 336.938C108.074 346.151 95.9817 350.758 80.2427 350.758ZM92.3349 319.088V317.936C79.6669 319.088 70.6457 314.673 65.2714 304.692C60.281 294.328 57.9777 281.276 58.3616 265.537L59.5132 176.285L57.7858 76.6682C57.4019 62.0808 61.0487 50.9483 68.7263 43.2707C76.7878 35.2093 90.7994 31.1786 110.761 31.1786C130.339 31.1786 143.583 35.0173 150.493 42.6949C157.402 49.9886 161.049 59.9695 161.433 72.6375L162.009 109.49H163.161L163.736 72.6375C164.12 59.2017 160.473 48.6451 152.796 40.9675C145.502 32.906 131.491 28.8753 110.761 28.8753C90.0316 28.8753 75.8281 33.098 68.1505 41.5433C60.4729 49.6047 56.2502 61.313 55.4825 76.6682L52.6034 176.285L56.0583 267.264C56.8261 282.619 59.5132 295.479 64.1198 305.844C69.1102 316.209 78.5152 320.623 92.3349 319.088ZM170.646 317.936H172.949L174.677 190.68L132.066 191.256V192.408L148.765 192.984H169.495L170.646 317.936Z"
        fill="#2B2B2B" fill-opacity="0.07" />
    <path
        d="M0.6875 748V407.691H134.277C159.613 407.691 177.848 413.065 188.98 423.814C200.497 434.562 206.255 448.574 206.255 465.849V502.701C206.255 518.824 202.224 532.835 194.163 544.736C186.485 556.252 173.625 562.97 155.583 564.889V566.041C172.089 566.041 186.101 571.415 197.617 582.164C209.134 592.529 214.892 609.035 214.892 631.684V676.022C214.892 703.278 207.214 722.088 191.859 732.453C176.888 742.817 155.967 748 129.095 748H0.6875ZM121.609 722.088C133.894 722.088 144.45 715.946 153.279 703.662C162.109 691.378 166.523 671.992 166.523 645.504V630.533C166.523 615.945 163.452 602.701 157.31 590.801C151.168 578.901 140.419 572.951 125.064 572.951C133.126 572.951 140.995 566.809 148.673 554.525C155.967 542.624 159.613 523.047 159.613 495.791C159.613 478.133 158.462 464.889 156.159 456.06C154.239 446.847 150.016 440.513 143.49 437.058C136.965 433.603 126.984 431.875 113.548 431.875L95.1217 432.451V433.603L113.548 434.179C126.216 434.179 135.429 435.906 141.187 439.361C147.329 442.432 151.168 448.382 152.704 457.211C154.239 466.04 155.007 478.9 155.007 495.791C155.007 517.672 152.32 536.098 146.945 551.07C141.955 565.657 132.742 572.951 119.306 572.951H96.2734V574.102H119.306C136.965 574.102 148.289 579.285 153.279 589.65C158.654 600.014 161.341 613.642 161.341 630.533V645.504C161.341 671.224 157.694 690.034 150.4 701.934C143.107 713.834 133.51 719.785 121.609 719.785L96.2734 720.36V721.512L121.609 722.088ZM48.4804 722.088H50.2079L51.3595 572.375L50.7837 433.027H48.4804L45.6013 572.375L48.4804 722.088ZM96.2734 547.615H103.183C107.406 547.615 110.477 543.2 112.396 534.371C113.164 530.148 113.74 525.35 114.124 519.976C114.892 514.217 115.275 508.267 115.275 502.125C115.275 495.599 115.083 489.649 114.7 484.275C114.7 478.517 114.508 473.526 114.124 469.303C113.356 460.474 110.285 456.06 104.911 456.06H96.2734V547.615ZM96.2734 701.358H104.911C109.133 701.358 112.012 696.56 113.548 686.963C114.7 677.75 115.275 666.425 115.275 652.99C115.275 646.464 115.083 640.322 114.7 634.563C114.7 628.805 114.508 623.431 114.124 618.44C113.74 609.227 110.669 604.621 104.911 604.621H96.2734V701.358Z"
        fill="#2B2B2B" fill-opacity="0.07" />
    <path
        d="M339.908 754.909C316.875 754.909 297.489 752.03 281.75 746.272C266.395 740.514 254.686 729.957 246.625 714.602C238.947 698.863 235.109 676.79 235.109 648.383V480.244C235.109 451.837 244.706 431.875 263.9 420.359C283.094 408.459 308.43 402.509 339.908 402.509C371.386 402.509 395.954 408.459 413.612 420.359C431.655 431.875 440.676 451.837 440.676 480.244V647.807C440.676 676.598 437.029 698.671 429.735 714.026C422.826 729.382 411.885 740.13 396.914 746.272C381.942 752.03 362.94 754.909 339.908 754.909ZM319.178 722.088H334.725C337.029 722.088 338.756 721.896 339.908 721.512C340.675 721.896 342.019 722.088 343.938 722.088H357.758C382.326 722.088 394.994 708.844 395.762 682.356L398.065 575.254L395.762 464.121C395.378 452.221 391.347 443.776 383.67 438.785C376.376 433.411 366.587 431.108 354.303 431.875L339.908 432.451L322.633 431.875C310.349 431.491 300.368 433.795 292.69 438.785C285.397 443.776 281.558 452.221 281.174 464.121L278.871 575.254L281.174 682.356C281.942 708.844 294.61 722.088 319.178 722.088ZM334.725 720.36L327.815 719.785H319.178C294.994 719.017 283.094 706.541 283.477 682.356L286.357 574.678L283.477 464.121C283.094 452.989 286.548 445.311 293.842 441.088C301.136 436.866 310.733 434.562 322.633 434.179L339.908 433.603L354.303 434.179C366.203 434.562 375.8 436.866 383.094 441.088C390.388 445.311 393.843 452.989 393.459 464.121L390.58 574.678L393.459 682.356C393.843 706.541 381.942 719.017 357.758 719.785H349.697L343.938 720.36H334.725ZM339.908 701.934C342.979 701.934 345.282 700.591 346.817 697.903C348.353 695.984 349.121 691.569 349.121 684.66V475.637C349.121 469.112 348.353 464.505 346.817 461.818C345.282 459.515 342.979 458.363 339.908 458.363C337.22 458.363 334.917 459.515 332.998 461.818C331.462 464.505 330.695 469.112 330.695 475.637V684.66C330.695 691.569 331.462 695.984 332.998 697.903C334.533 700.591 336.837 701.934 339.908 701.934Z"
        fill="#2B2B2B" fill-opacity="0.07" />
    <path
        d="M503.759 748V471.607H454.815V407.691H644.259V471.607H595.315V748H503.759ZM547.522 720.936H550.401L552.704 575.254L550.401 439.361L616.62 438.209V437.058L549.249 435.906L485.333 437.058V438.209L547.522 439.361L545.218 575.254L547.522 720.936Z"
        fill="#2B2B2B" fill-opacity="0.07" />
</svg>
    