<svg width="1366" height="551" viewBox="0 0 1366 551" fill="none" xmlns="http://www.w3.org/2000/svg">
    <path
        d="M116.132 549.213C81.3223 549.213 53.1145 538.709 31.5086 517.701C10.5029 496.694 0 458.88 0 404.26V123.358C0 78.9424 14.4039 47.7311 43.2118 29.7245C72.0197 11.1177 110.43 1.81436 158.443 1.81436C206.456 1.81436 245.467 11.1177 275.475 29.7245C306.084 47.7311 321.388 78.9424 321.388 123.358V204.388H182.75V114.355C182.75 104.152 180.95 97.249 177.349 93.6477C173.748 89.4462 168.946 87.3454 162.945 87.3454C156.943 87.3454 152.142 89.4462 148.541 93.6477C144.94 97.249 143.139 104.152 143.139 114.355V441.174C143.139 451.377 144.94 458.58 148.541 462.782C152.142 466.383 156.943 468.184 162.945 468.184C168.946 468.184 173.748 466.383 177.349 462.782C180.95 458.58 182.75 451.377 182.75 441.174V340.337H160.244V260.208H321.388V540.21H213.358L200.755 484.389C195.954 498.795 186.651 513.2 172.847 527.605C159.644 542.01 140.739 549.213 116.132 549.213ZM135.037 499.695V497.894C115.232 499.695 101.128 492.792 92.7254 477.187C84.9232 460.981 81.3223 440.573 81.9224 415.965L83.7229 276.414L81.0222 120.658C80.422 97.8493 86.1236 80.4429 98.1269 68.4386C110.73 55.834 132.636 49.5317 163.845 49.5317C194.453 49.5317 215.159 55.5339 225.962 67.5382C236.765 78.9424 242.466 94.548 243.067 114.355L243.967 171.976H245.767L246.667 114.355C247.268 93.3476 241.566 76.8416 229.563 64.8373C218.16 52.2327 196.254 45.9304 163.845 45.9304C131.436 45.9304 109.23 52.5328 97.2266 65.7376C85.2233 78.3422 78.6215 96.6488 77.4212 120.658L72.92 276.414L78.3214 418.666C79.5218 442.674 83.7229 462.782 90.9249 478.987C98.727 495.193 113.431 502.096 135.037 499.695ZM257.47 497.894H261.071L263.772 298.922L197.154 299.822V301.623L223.261 302.523H255.67L257.47 497.894Z"
        fill="#2B2B2B" fill-opacity="0.07" />
    <path
        d="M359.827 540.196V8.10295H568.684C608.295 8.10295 636.803 16.506 654.208 33.3121C672.212 50.1182 681.215 72.0261 681.215 99.0359V156.657C681.215 181.866 674.913 203.774 662.31 222.381C650.307 240.387 630.201 250.891 601.993 253.892V255.693C627.8 255.693 649.706 264.096 667.711 280.902C685.716 297.108 694.719 322.917 694.719 358.33V427.655C694.719 470.271 682.715 499.681 658.709 515.887C635.302 532.093 602.593 540.196 560.582 540.196H359.827ZM548.879 499.681C568.084 499.681 584.589 490.078 598.392 470.871C612.196 451.664 619.098 421.353 619.098 379.938V356.529C619.098 333.721 614.297 313.014 604.694 294.407C595.091 275.8 578.287 266.497 554.28 266.497C566.884 266.497 579.187 256.893 591.19 237.686C602.593 219.08 608.295 188.468 608.295 145.853C608.295 118.243 606.495 97.5354 602.893 83.7304C599.893 69.3252 593.291 59.4216 583.088 54.0196C572.885 48.6176 557.281 45.9166 536.275 45.9166L507.467 46.817V48.6177L536.275 49.518C556.081 49.518 570.485 52.219 579.487 57.6209C589.09 62.4227 595.091 71.726 597.492 85.531C599.893 99.336 601.093 119.443 601.093 145.853C601.093 180.065 596.892 208.876 588.49 232.284C580.688 255.093 566.284 266.497 545.278 266.497H509.268V268.297H545.278C572.885 268.297 590.59 276.4 598.392 292.606C606.795 308.812 610.996 330.12 610.996 356.529V379.938C610.996 420.153 605.294 449.563 593.891 468.17C582.488 486.777 567.484 496.08 548.879 496.08L509.268 496.98V498.781L548.879 499.681ZM434.547 499.681H437.248L439.049 265.596L438.148 47.7173H434.547L430.046 265.596L434.547 499.681ZM509.268 226.882H520.071C526.673 226.882 531.474 219.98 534.475 206.175C535.675 199.572 536.575 192.07 537.176 183.667C538.376 174.663 538.976 165.36 538.976 155.757C538.976 145.553 538.676 136.249 538.076 127.846C538.076 118.843 537.776 111.04 537.176 104.438C535.975 90.6329 531.174 83.7304 522.772 83.7304H509.268V226.882ZM509.268 467.27H522.772C529.373 467.27 533.875 459.767 536.275 444.761C538.076 430.356 538.976 412.65 538.976 391.642C538.976 381.438 538.676 371.835 538.076 362.832C538.076 353.828 537.776 345.425 537.176 337.623C536.575 323.217 531.774 316.015 522.772 316.015H509.268V467.27Z"
        fill="#2B2B2B" fill-opacity="0.07" />
    <path
        d="M890.171 551C854.161 551 823.852 546.498 799.246 537.495C775.239 528.492 756.934 511.986 744.331 487.977C732.327 463.368 726.326 428.856 726.326 384.44V121.544C726.326 77.128 741.33 45.9166 771.338 27.9101C801.346 9.30336 840.957 0 890.171 0C939.384 0 977.794 9.30336 1005.4 27.9101C1033.61 45.9166 1047.71 77.128 1047.71 121.544V383.539C1047.71 428.556 1042.01 463.068 1030.61 487.077C1019.81 511.085 1002.7 527.892 979.295 537.495C955.889 546.498 926.18 551 890.171 551ZM857.762 499.681H882.068C885.669 499.681 888.37 499.381 890.171 498.781C891.371 499.381 893.471 499.681 896.472 499.681H918.078C956.489 499.681 976.294 478.974 977.495 437.559L981.095 270.098L977.495 96.335C976.894 77.7282 970.593 64.5234 958.589 56.7206C947.186 48.3176 931.882 44.7162 912.677 45.9166L890.171 46.817L863.163 45.9166C843.958 45.3164 828.354 48.9178 816.35 56.7206C804.947 64.5234 798.946 77.7282 798.345 96.335L794.744 270.098L798.345 437.559C799.546 478.974 819.351 499.681 857.762 499.681ZM882.068 496.98L871.265 496.08H857.762C819.951 494.88 801.346 475.373 801.946 437.559L806.448 269.198L801.946 96.335C801.346 78.9287 806.748 66.9243 818.151 60.3218C829.554 53.7195 844.558 50.1182 863.163 49.518L890.171 48.6177L912.677 49.518C931.282 50.1182 946.286 53.7195 957.689 60.3218C969.092 66.9243 974.494 78.9287 973.893 96.335L969.392 269.198L973.893 437.559C974.494 475.373 955.889 494.88 918.078 496.08H905.475L896.472 496.98H882.068ZM890.171 468.17C894.972 468.17 898.573 466.069 900.974 461.868C903.374 458.867 904.575 451.964 904.575 441.16V114.341C904.575 104.138 903.374 96.9352 900.974 92.7336C898.573 89.1323 894.972 87.3317 890.171 87.3317C885.969 87.3317 882.368 89.1323 879.368 92.7336C876.967 96.9352 875.767 104.138 875.767 114.341V441.16C875.767 451.964 876.967 458.867 879.368 461.868C881.768 466.069 885.369 468.17 890.171 468.17Z"
        fill="#2B2B2B" fill-opacity="0.07" />
    <path
        d="M1146.34 540.196V108.039H1069.82V8.10295H1366V108.039H1289.48V540.196H1146.34ZM1214.76 497.881H1219.26L1222.86 270.098L1219.26 57.6209L1322.79 55.8202V54.0196L1217.46 52.2189L1117.53 54.0196V55.8202L1214.76 57.6209L1211.16 270.098L1214.76 497.881Z"
        fill="#2B2B2B" fill-opacity="0.07" />
</svg>
    