<svg width="644" height="755" viewBox="0 0 644 755" fill="none" xmlns="http://www.w3.org/2000/svg">
    <path
        d="M79.5552 350.098C57.2902 350.098 39.2479 343.38 25.4282 329.944C11.9925 316.508 5.27459 292.324 5.27459 257.391V77.7355C5.27459 49.3285 14.4877 29.3668 32.9139 17.8504C51.3401 5.95013 75.9083 0 106.619 0C137.329 0 162.281 5.95013 181.475 17.8504C201.053 29.3668 210.842 49.3285 210.842 77.7355V129.559H122.166V71.9773C122.166 65.4514 121.014 61.0368 118.711 58.7335C116.408 56.0464 113.337 54.7028 109.498 54.7028C105.659 54.7028 102.588 56.0464 100.285 58.7335C97.9814 61.0368 96.8297 65.4514 96.8297 71.9773V280.999C96.8297 287.525 97.9814 292.132 100.285 294.819C102.588 297.122 105.659 298.274 109.498 298.274C113.337 298.274 116.408 297.122 118.711 294.819C121.014 292.132 122.166 287.525 122.166 280.999V216.508H107.77V165.26H210.842V344.34H141.744L133.682 308.639C130.611 317.852 124.661 327.065 115.832 336.278C107.386 345.491 95.2942 350.098 79.5552 350.098ZM91.6474 318.428V317.276C78.9794 318.428 69.9582 314.013 64.5839 304.032C59.5935 293.667 57.2902 280.616 57.6741 264.877L58.8257 175.625L57.0983 76.0081C56.7144 61.4207 60.3612 50.2882 68.0388 42.6106C76.1003 34.5491 90.1119 30.5184 110.074 30.5184C129.651 30.5184 142.895 34.3572 149.805 42.0348C156.715 49.3285 160.362 59.3093 160.746 71.9773L161.321 108.83H162.473L163.049 71.9773C163.433 58.5416 159.786 47.9849 152.108 40.3073C144.815 32.2459 130.803 28.2151 110.074 28.2151C89.3441 28.2151 75.1406 32.4378 67.463 40.8831C59.7854 48.9446 55.5627 60.6529 54.795 76.0081L51.9159 175.625L55.3708 266.604C56.1386 281.959 58.8257 294.819 63.4323 305.184C68.4227 315.549 77.8277 319.963 91.6474 318.428ZM169.959 317.276H172.262L173.989 190.02L131.379 190.596V191.748L148.078 192.323H168.807L169.959 317.276Z"
        fill="#2B2B2B" fill-opacity="0.93" />
    <path
        d="M235.332 344.34V4.03075H400.016V67.9466H330.918V134.166H394.258V206.143H330.918V282.151H400.016V344.34H235.332ZM281.398 312.669L376.408 312.094V310.942L284.277 310.366L286.58 172.746L362.012 172.17V171.018L286.58 170.442L284.277 38.0041L376.408 37.4282V36.2766L281.398 35.7008L279.094 171.594L281.398 312.669Z"
        fill="#2B2B2B" fill-opacity="0.93" />
    <path
        d="M424.273 344.34V4.03075H503.736L545.194 162.381V4.03075H625.233V344.34H546.346L504.311 203.264V344.34H424.273ZM463.428 317.276H466.307L468.035 171.594L466.307 36.8524L516.404 168.715L583.198 317.276H584.926L586.653 171.594L584.926 29.3667H582.047L580.319 171.594L582.623 311.518L524.465 172.17L465.156 29.3667H463.428L461.701 171.594L463.428 317.276Z"
        fill="#2B2B2B" fill-opacity="0.93" />
    <path
        d="M0 747.34V407.031H133.59C158.926 407.031 177.16 412.405 188.293 423.154C199.809 433.902 205.567 447.914 205.567 465.188V502.041C205.567 518.164 201.537 532.175 193.475 544.076C185.797 555.592 172.938 562.31 154.895 564.229V565.381C171.402 565.381 185.414 570.755 196.93 581.504C208.446 591.869 214.205 608.375 214.205 631.024V675.362C214.205 702.618 206.527 721.428 191.172 731.792C176.2 742.157 155.279 747.34 128.408 747.34H0ZM120.922 721.428C133.206 721.428 143.763 715.286 152.592 703.001C161.421 690.717 165.836 671.331 165.836 644.844V629.872C165.836 615.285 162.765 602.041 156.623 590.141C150.481 578.241 139.732 572.291 124.377 572.291C132.438 572.291 140.308 566.149 147.985 553.865C155.279 541.964 158.926 522.386 158.926 495.131C158.926 477.473 157.774 464.229 155.471 455.4C153.552 446.186 149.329 439.852 142.803 436.397C136.277 432.943 126.296 431.215 112.86 431.215L94.4342 431.791V432.943L112.86 433.518C125.528 433.518 134.742 435.246 140.5 438.701C146.642 441.772 150.481 447.722 152.016 456.551C153.552 465.38 154.319 478.24 154.319 495.131C154.319 517.012 151.632 535.438 146.258 550.41C141.267 564.997 132.054 572.291 118.619 572.291H95.5859V573.442H118.619C136.277 573.442 147.601 578.625 152.592 588.989C157.966 599.354 160.653 612.982 160.653 629.872V644.844C160.653 670.564 157.007 689.374 149.713 701.274C142.419 713.174 132.822 719.124 120.922 719.124L95.5859 719.7V720.852L120.922 721.428ZM47.7929 721.428H49.5204L50.672 571.715L50.0962 432.367H47.7929L44.9138 571.715L47.7929 721.428ZM95.5859 546.955H102.496C106.718 546.955 109.789 542.54 111.709 533.711C112.477 529.488 113.052 524.69 113.436 519.315C114.204 513.557 114.588 507.607 114.588 501.465C114.588 494.939 114.396 488.989 114.012 483.615C114.012 477.856 113.82 472.866 113.436 468.643C112.669 459.814 109.597 455.4 104.223 455.4H95.5859V546.955ZM95.5859 700.698H104.223C108.446 700.698 111.325 695.9 112.86 686.303C114.012 677.09 114.588 665.765 114.588 652.329C114.588 645.804 114.396 639.661 114.012 633.903C114.012 628.145 113.82 622.771 113.436 617.78C113.052 608.567 109.981 603.961 104.223 603.961H95.5859V700.698Z"
        fill="#2B2B2B" fill-opacity="0.93" />
    <path
        d="M339.22 754.249C316.187 754.249 296.801 751.37 281.062 745.612C265.707 739.854 253.999 729.297 245.938 713.942C238.26 698.203 234.421 676.13 234.421 647.723V479.584C234.421 451.177 244.018 431.215 263.212 419.699C282.406 407.798 307.742 401.848 339.22 401.848C370.698 401.848 395.266 407.798 412.925 419.699C430.967 431.215 439.988 451.177 439.988 479.584V647.147C439.988 675.938 436.342 698.011 429.048 713.366C422.138 728.721 411.197 739.47 396.226 745.612C381.255 751.37 362.253 754.249 339.22 754.249ZM318.491 721.428H334.038C336.341 721.428 338.068 721.236 339.22 720.852C339.988 721.236 341.331 721.428 343.251 721.428H357.07C381.639 721.428 394.307 708.184 395.075 681.696L397.378 574.594L395.075 463.461C394.691 451.561 390.66 443.115 382.982 438.125C375.689 432.751 365.9 430.447 353.616 431.215L339.22 431.791L321.946 431.215C309.661 430.831 299.681 433.135 292.003 438.125C284.709 443.115 280.871 451.561 280.487 463.461L278.183 574.594L280.487 681.696C281.254 708.184 293.922 721.428 318.491 721.428ZM334.038 719.7L327.128 719.124H318.491C294.306 718.357 282.406 705.881 282.79 681.696L285.669 574.018L282.79 463.461C282.406 452.328 285.861 444.651 293.155 440.428C300.448 436.206 310.045 433.902 321.946 433.518L339.22 432.943L353.616 433.518C365.516 433.902 375.113 436.206 382.407 440.428C389.7 444.651 393.155 452.328 392.771 463.461L389.892 574.018L392.771 681.696C393.155 705.881 381.255 718.357 357.07 719.124H349.009L343.251 719.7H334.038ZM339.22 701.274C342.291 701.274 344.594 699.93 346.13 697.243C347.665 695.324 348.433 690.909 348.433 683.999V474.977C348.433 468.451 347.665 463.845 346.13 461.158C344.594 458.854 342.291 457.703 339.22 457.703C336.533 457.703 334.23 458.854 332.31 461.158C330.775 463.845 330.007 468.451 330.007 474.977V683.999C330.007 690.909 330.775 695.324 332.31 697.243C333.846 699.93 336.149 701.274 339.22 701.274Z"
        fill="#2B2B2B" fill-opacity="0.93" />
    <path
        d="M503.072 747.34V470.947H454.127V407.031H643.572V470.947H594.627V747.34H503.072ZM546.834 720.276H549.713L552.017 574.594L549.713 438.701L615.932 437.549V436.397L548.562 435.246L484.646 436.397V437.549L546.834 438.701L544.531 574.594L546.834 720.276Z"
        fill="#2B2B2B" fill-opacity="0.93" />
</svg>