<svg width="131" height="87" viewBox="0 0 131 87" fill="none" xmlns="http://www.w3.org/2000/svg">
<g clip-path="url(#clip0_226_260)">
<g clip-path="url(#clip1_226_260)">
<path d="M77.8951 20.6089H53.1049C46.2562 20.6089 40.6859 25.9956 40.6859 32.6188V54.5512C40.6859 61.1743 46.2562 66.561 53.1049 66.561H77.8951C84.744 66.561 90.3142 61.1743 90.3142 54.5512V32.6188C90.3142 25.9956 84.744 20.6089 77.8951 20.6089ZM45.0664 32.6188C45.0664 28.3318 48.672 24.8451 53.1049 24.8451H77.8951C82.328 24.8451 85.9336 28.3318 85.9336 32.6188V54.5512C85.9336 58.8381 82.328 62.3248 77.8951 62.3248H53.1049C48.672 62.3248 45.0664 58.8381 45.0664 54.5512V32.6188Z" fill="#666665"/>
<path d="M65.5004 54.7578C71.8704 54.7578 77.0533 49.7457 77.0533 43.5853C77.0533 37.4252 71.8704 32.4131 65.5004 32.4131C59.1301 32.4131 53.9473 37.4252 53.9473 43.5853C53.9473 49.7457 59.1301 54.7578 65.5004 54.7578ZM65.5004 36.6515C69.4546 36.6515 72.6706 39.7614 72.6706 43.5853C72.6706 47.4095 69.4546 50.5193 65.5004 50.5193C61.5459 50.5193 58.3302 47.4095 58.3302 43.5853C58.3302 39.7614 61.5459 36.6515 65.5004 36.6515Z" fill="#666665"/>
<path d="M78.1232 34.2164C79.8395 34.2164 81.2366 32.8655 81.2366 31.2059C81.2366 29.5461 79.8395 28.1951 78.1232 28.1951C76.407 28.1951 75.0099 29.5461 75.0099 31.2059C75.0099 32.8655 76.407 34.2164 78.1232 34.2164Z" fill="#666665"/>
</g>
</g>
<defs>
<clipPath id="clip0_226_260">
<rect width="129.94" height="86.39" fill="white" transform="translate(0.529968 0.389893)"/>
</clipPath>
<clipPath id="clip1_226_260">
<rect width="129.94" height="86.39" fill="white" transform="translate(0.529968 0.389893)"/>
</clipPath>
</defs>
</svg>
