<svg width="131" height="87" viewBox="0 0 131 87" fill="none" xmlns="http://www.w3.org/2000/svg">
<g clip-path="url(#clip0_226_244)">
<g clip-path="url(#clip1_226_244)">
<path d="M44.2521 29.338C43.2193 28.3654 42.7039 27.162 42.7039 25.7302C42.7039 24.2983 43.2193 23.0405 44.2521 22.068C45.2849 21.0952 46.6144 20.6089 48.2452 20.6089C49.8759 20.6089 51.1519 21.0952 52.1825 22.068C53.2153 23.0405 53.7307 24.2621 53.7307 25.7302C53.7307 27.1982 53.2153 28.3654 52.1825 29.338C51.1497 30.3107 49.838 30.797 48.2452 30.797C46.6525 30.797 45.2849 30.3107 44.2521 29.338ZM52.8608 34.9162V64.7229H43.5739V34.9162H52.8608Z" fill="#666665"/>
<path d="M83.782 37.859C85.8052 40.0871 86.8179 43.1475 86.8179 47.0428V64.198H77.9951V48.253C77.9951 46.2895 77.4933 44.7626 76.4894 43.6747C75.4856 42.5865 74.1359 42.0437 72.4404 42.0437C70.7452 42.0437 69.3955 42.5889 68.3917 43.6747C67.3877 44.7626 66.8857 46.2895 66.8857 48.253V64.198H58.0117V34.8346H66.8857V38.7298C67.7848 37.4314 68.9962 36.4067 70.5198 35.6512C72.0412 34.898 73.7545 34.5203 75.6573 34.5203C79.0482 34.5203 81.7564 35.6354 83.7796 37.8612L83.782 37.859Z" fill="#666665"/>
</g>
</g>
<defs>
<clipPath id="clip0_226_244">
<rect width="129.94" height="86.39" fill="white" transform="translate(0.709961 0.389893)"/>
</clipPath>
<clipPath id="clip1_226_244">
<rect width="129.94" height="86.39" fill="white" transform="translate(0.709961 0.389893)"/>
</clipPath>
</defs>
</svg>
