<svg width="131" height="87" viewBox="0 0 131 87" fill="none" xmlns="http://www.w3.org/2000/svg">
<g clip-path="url(#clip0_226_267)">
<g clip-path="url(#clip1_226_267)">
<path d="M92.3264 32.8885C91.9856 29.5755 91.2469 25.9166 88.5308 23.9916C86.4242 22.4992 83.6584 22.4445 81.0766 22.4468C75.617 22.4518 70.1575 22.457 64.698 22.4619C59.4473 22.4669 54.1966 22.4718 48.9462 22.4768C46.7524 22.4768 44.6208 22.3077 42.5838 23.2552C40.8327 24.0712 39.4647 25.6207 38.6439 27.3444C37.4998 29.7446 37.2585 32.4605 37.1217 35.1146C36.868 39.9449 36.8954 44.7901 37.2013 49.6152C37.4226 53.1397 37.9872 57.0322 40.7108 59.2782C43.1259 61.2681 46.5335 61.3652 49.6625 61.3676C59.6015 61.3751 69.5406 61.3824 79.4797 61.3924C80.7531 61.3924 82.0839 61.3701 83.3823 61.2282C85.9391 60.9522 88.3742 60.221 90.0158 58.3281C91.6723 56.4204 92.0976 53.7616 92.3512 51.2469C92.9631 45.1481 92.9556 38.9846 92.3264 32.8885ZM58.9499 50.4734V33.366L73.7666 41.9197L58.9499 50.4734Z" fill="#7B7E7A"/>
</g>
</g>
<defs>
<clipPath id="clip0_226_267">
<rect width="129.94" height="86.39" fill="white" transform="translate(0.469971 0.389893)"/>
</clipPath>
<clipPath id="clip1_226_267">
<rect width="129.94" height="86.39" fill="white" transform="translate(0.469971 0.389893)"/>
</clipPath>
</defs>
</svg>
