<svg width="43" height="42" viewBox="0 0 43 42" fill="none" xmlns="http://www.w3.org/2000/svg">
<mask id="mask0_226_80" style="mask-type:luminance" maskUnits="userSpaceOnUse" x="0" y="0" width="43" height="42">
<path d="M17.076 0.369635C17.0423 0.369635 16.9917 0.369635 16.9243 0.369635C15.7843 0.369635 9.84538 0.366832 6.42242 5.10393C2.53054 10.4897 0.244826 16.086 0.966481 18.8351C1.55055 21.0534 3.48245 23.0751 4.34451 23.7968C5.20656 24.5184 8.32906 25.9168 11.1708 25.3356C14.0124 24.7543 15.6888 22.96 16.9019 21.5139C18.1121 20.0706 18.4856 16.2966 18.2076 14.0137C17.9268 11.7308 16.3908 8.18992 16.1578 7.58339C15.9247 6.97686 15.599 6.48827 15.9472 5.76661C16.2954 5.04496 16.9243 5.13762 17.9268 5.06742C18.9293 4.99722 26.918 5.44088 27.9682 5.76661C29.0156 6.09234 29.5772 6.34787 29.156 7.42053C28.7853 8.36682 25.2669 11.6129 23.9387 12.43C23.3687 12.7782 23.0767 13.059 22.8436 12.6406C22.6105 12.2222 22.5684 11.6185 23.0767 11.0092C23.3519 10.6806 23.6298 10.3549 23.9078 10.0292C24.1184 9.78206 24.3936 9.53495 24.5509 9.25134C24.8766 8.6757 24.8878 7.88385 24.2785 7.51039C23.6944 7.15096 22.9222 7.11165 22.2624 7.00214C20.7236 6.74661 19.5133 7.51319 19.1876 8.63358C18.8619 9.75117 20.5382 14.1316 21.215 15.2015C21.8917 16.2741 22.2624 16.4117 22.8913 16.5746C23.5203 16.7375 25.1518 15.6423 28.1339 14.595C31.116 13.5476 34.8197 14.8758 35.634 15.4346C36.4484 15.9934 36.7292 16.086 36.8218 17.0183C36.9145 17.9505 35.7492 19.5342 33.4663 23.238C31.1834 26.9417 26.8282 31.4373 26.8282 31.4373C26.8282 31.4373 28.6 27.8038 29.0409 26.8238C29.4845 25.8466 31.7422 21.4886 32.7446 19.8347C33.7471 18.1808 33.7218 16.6673 31.905 15.9905C30.0882 15.3138 26.5923 16.1534 22.7734 18.88C18.9545 21.6065 18.5333 24.0523 13.2459 26.1021C7.9584 28.152 4.41751 26.3829 4.41751 26.3829L5.93102 29.2022C7.44454 32.0214 11.8026 37.4942 11.8026 37.4942C11.8026 37.4942 14.1865 34.1808 16.1802 31.9428C19.2297 28.517 22.6807 26.5458 22.6807 26.5458C22.6807 26.5458 21.0268 28.4805 19.0697 30.9937C17.1125 33.5097 14.2483 39.589 14.2483 39.589C14.2483 39.589 13.9928 39.6114 15.321 40.5212C16.6492 41.431 23.1721 41.7315 25.6628 41.6163C28.1563 41.4984 30.2567 40.6336 31.9303 38.4012C34.362 35.1523 37.4284 29.8059 39.5007 25.9842C41.573 22.1625 42.2974 19.2282 42.5754 17.2963C42.8562 15.3615 41.6123 12.7333 41.6123 12.7333C40.0342 7.53846 33.7218 2.34366 31.2873 1.22327C29.639 0.467918 25.1069 0.302246 21.4059 0.302246C19.6397 0.302246 18.0616 0.338753 17.0816 0.366833" fill="white"/>
</mask>
<g mask="url(#mask0_226_80)">
<path d="M42.8478 0.305176H0.24202V41.7344H42.8478V0.305176Z" fill="url(#paint0_linear_226_80)"/>
</g>
<defs>
<linearGradient id="paint0_linear_226_80" x1="1.20918" y1="13.9499" x2="43.0627" y2="13.9499" gradientUnits="userSpaceOnUse">
<stop stop-color="#8A611E"/>
<stop offset="0.11" stop-color="#A68025"/>
<stop offset="0.13" stop-color="#AD882A"/>
<stop offset="0.26" stop-color="#D9B94B"/>
<stop offset="0.33" stop-color="#EACD58"/>
<stop offset="0.5" stop-color="#E8D35B"/>
<stop offset="0.66" stop-color="#EACD58"/>
<stop offset="0.72" stop-color="#DABB4C"/>
<stop offset="0.84" stop-color="#B38F2F"/>
<stop offset="0.88" stop-color="#A68025"/>
<stop offset="1" stop-color="#8A611E"/>
</linearGradient>
</defs>
</svg>
